<svg width="24" height="24" viewBox="0 0 24 24" fill="none" xmlns="http://www.w3.org/2000/svg" _ngcontent-ng-c3771109275="" class="w-5 h-5 lg:w-6 lg:h-6 mt-[2px]" aria-hidden="true">
  <path fill-rule="evenodd" clip-rule="evenodd" d="M12 3.5C7.30558 3.5 3.5 7.30558 3.5 12C3.5 16.6944 7.30558 20.5 12 20.5C16.6944 20.5 20.5 16.6944 20.5 12C20.5 7.30558 16.6944 3.5 12 3.5ZM2.5 12C2.5 6.75329 6.75329 2.5 12 2.5C17.2467 2.5 21.5 6.75329 21.5 12C21.5 17.2467 17.2467 21.5 12 21.5C6.75329 21.5 2.5 17.2467 2.5 12ZM15.2906 9.34313C15.5153 9.50364 15.5674 9.81591 15.4069 10.0406L11.6569 15.2906C11.5714 15.4102 11.4377 15.4862 11.2912 15.4983C11.1448 15.5104 11.0004 15.4575 10.8964 15.3536L8.64645 13.1036C8.45118 12.9083 8.45118 12.5917 8.64645 12.3964C8.84171 12.2012 9.15829 12.2012 9.35355 12.3964L11.1862 14.2291L14.5931 9.45938C14.7536 9.23467 15.0659 9.18263 15.2906 9.34313Z" fill="#B22222" _ngcontent-ng-c3771109275=""></path>
</svg>