<svg xmlns="http://www.w3.org/2000/svg" width="21" height="21" viewBox="0 0 21 21" fill="none"><path d="M10.1562 0C4.55625 0 0 4.55625 0 10.1562C0 15.7563 4.55625 20.3125 10.1562 20.3125C15.7563 20.3125 20.3125 15.7563 20.3125 10.1562C20.3125 4.55625 15.7563 0 10.1562 0ZM10.1562 1.5625C14.9117 1.5625 18.75 5.40078 18.75 10.1562C18.75 14.9117 14.9117 18.75 10.1562 18.75C5.40078 18.75 1.5625 14.9117 1.5625 10.1562C1.5625 5.40078 5.40078 1.5625 10.1562 1.5625ZM10.7187 5.15156L9.59375 6.25L12.7188 9.375H4.6875V10.9375H12.7188L9.59375 14.0625L10.7187 15.1609L15.1609 10.718L15.7234 10.1555L15.1609 9.59297L10.718 5.15078L10.7187 5.15156Z" fill="#B22222"></path></svg>